<?xml version="1.0" encoding="UTF-8" standalone="no"?>
<!DOCTYPE svg PUBLIC "-//W3C//DTD SVG 1.1//EN"
 "http://www.w3.org/Graphics/SVG/1.1/DTD/svg11.dtd">
<!-- Generated by graphviz version 2.43.0 (0)
 -->
<!-- Title: D Pages: 1 -->
<svg width="640pt" height="188pt"
 viewBox="0.00 0.00 639.77 188.00" xmlns="http://www.w3.org/2000/svg" xmlns:xlink="http://www.w3.org/1999/xlink">
<g id="graph0" class="graph" transform="scale(1 1) rotate(0) translate(4 184)">
<title>D</title>
<polygon fill="white" stroke="transparent" points="-4,4 -4,-184 635.77,-184 635.77,4 -4,4"/>
<!--  &#160;%3 = add nsw i32 %2, %1 -->
<g id="node1" class="node">
<title> &#160;%3 = add nsw i32 %2, %1</title>
<ellipse fill="none" stroke="black" cx="315.39" cy="-90" rx="139.18" ry="18"/>
<text text-anchor="middle" x="315.39" y="-86.3" font-family="Times,serif" font-size="14.00"> &#160;%3 = add nsw i32 %2, %1</text>
</g>
<!--  &#160;%1 = tail call i32 @rand() #2 -->
<g id="node2" class="node">
<title> &#160;%1 = tail call i32 @rand() #2</title>
<ellipse fill="none" stroke="black" cx="153.39" cy="-18" rx="153.27" ry="18"/>
<text text-anchor="middle" x="153.39" y="-14.3" font-family="Times,serif" font-size="14.00"> &#160;%1 = tail call i32 @rand() #2</text>
</g>
<!--  &#160;%3 = add nsw i32 %2, %1&#45;&gt; &#160;%1 = tail call i32 @rand() #2 -->
<g id="edge1" class="edge">
<title> &#160;%3 = add nsw i32 %2, %1&#45;&gt; &#160;%1 = tail call i32 @rand() #2</title>
<path fill="none" stroke="black" d="M277.4,-72.59C254.62,-62.74 225.43,-50.13 201.1,-39.62"/>
<polygon fill="black" stroke="black" points="202.26,-36.31 191.69,-35.55 199.48,-42.73 202.26,-36.31"/>
</g>
<!--  &#160;%2 = tail call i32 @rand() #2 -->
<g id="node3" class="node">
<title> &#160;%2 = tail call i32 @rand() #2</title>
<ellipse fill="none" stroke="black" cx="478.39" cy="-18" rx="153.27" ry="18"/>
<text text-anchor="middle" x="478.39" y="-14.3" font-family="Times,serif" font-size="14.00"> &#160;%2 = tail call i32 @rand() #2</text>
</g>
<!--  &#160;%3 = add nsw i32 %2, %1&#45;&gt; &#160;%2 = tail call i32 @rand() #2 -->
<g id="edge2" class="edge">
<title> &#160;%3 = add nsw i32 %2, %1&#45;&gt; &#160;%2 = tail call i32 @rand() #2</title>
<path fill="none" stroke="black" d="M353.6,-72.59C376.53,-62.74 405.9,-50.13 430.38,-39.62"/>
<polygon fill="black" stroke="black" points="432.04,-42.71 439.84,-35.55 429.28,-36.28 432.04,-42.71"/>
</g>
<!--  &#160;ret i32 %3 -->
<g id="node4" class="node">
<title> &#160;ret i32 %3</title>
<ellipse fill="none" stroke="black" cx="315.39" cy="-162" rx="65.79" ry="18"/>
<text text-anchor="middle" x="315.39" y="-158.3" font-family="Times,serif" font-size="14.00"> &#160;ret i32 %3</text>
</g>
<!--  &#160;ret i32 %3&#45;&gt; &#160;%3 = add nsw i32 %2, %1 -->
<g id="edge3" class="edge">
<title> &#160;ret i32 %3&#45;&gt; &#160;%3 = add nsw i32 %2, %1</title>
<path fill="none" stroke="black" d="M315.39,-143.7C315.39,-135.98 315.39,-126.71 315.39,-118.11"/>
<polygon fill="black" stroke="black" points="318.89,-118.1 315.39,-108.1 311.89,-118.1 318.89,-118.1"/>
</g>
</g>
</svg>
