<?xml version="1.0" encoding="UTF-8" standalone="no"?>
<!DOCTYPE svg PUBLIC "-//W3C//DTD SVG 1.1//EN"
 "http://www.w3.org/Graphics/SVG/1.1/DTD/svg11.dtd">
<!-- Generated by graphviz version 2.43.0 (0)
 -->
<!-- Title: D Pages: 1 -->
<svg width="1469pt" height="332pt"
 viewBox="0.00 0.00 1469.22 332.00" xmlns="http://www.w3.org/2000/svg" xmlns:xlink="http://www.w3.org/1999/xlink">
<g id="graph0" class="graph" transform="scale(1 1) rotate(0) translate(4 328)">
<title>D</title>
<polygon fill="white" stroke="transparent" points="-4,4 -4,-328 1465.22,-328 1465.22,4 -4,4"/>
<!--  &#160;store i32 0, i32* %1, align 4 -->
<g id="node1" class="node">
<title> &#160;store i32 0, i32* %1, align 4</title>
<ellipse fill="none" stroke="black" cx="146.89" cy="-306" rx="146.77" ry="18"/>
<text text-anchor="middle" x="146.89" y="-302.3" font-family="Times,serif" font-size="14.00"> &#160;store i32 0, i32* %1, align 4</text>
</g>
<!--  &#160;%1 = alloca i32, align 4 -->
<g id="node2" class="node">
<title> &#160;%1 = alloca i32, align 4</title>
<ellipse fill="none" stroke="black" cx="146.89" cy="-234" rx="126.98" ry="18"/>
<text text-anchor="middle" x="146.89" y="-230.3" font-family="Times,serif" font-size="14.00"> &#160;%1 = alloca i32, align 4</text>
</g>
<!--  &#160;store i32 0, i32* %1, align 4&#45;&gt; &#160;%1 = alloca i32, align 4 -->
<g id="edge1" class="edge">
<title> &#160;store i32 0, i32* %1, align 4&#45;&gt; &#160;%1 = alloca i32, align 4</title>
<path fill="none" stroke="black" d="M146.89,-287.7C146.89,-279.98 146.89,-270.71 146.89,-262.11"/>
<polygon fill="black" stroke="black" points="150.39,-262.1 146.89,-252.1 143.39,-262.1 150.39,-262.1"/>
</g>
<!--  &#160;%7 = load i32, i32* %2, align 4 -->
<g id="node3" class="node">
<title> &#160;%7 = load i32, i32* %2, align 4</title>
<ellipse fill="none" stroke="black" cx="628.89" cy="-90" rx="161.67" ry="18"/>
<text text-anchor="middle" x="628.89" y="-86.3" font-family="Times,serif" font-size="14.00"> &#160;%7 = load i32, i32* %2, align 4</text>
</g>
<!--  &#160;%2 = alloca i32, align 4 -->
<g id="node4" class="node">
<title> &#160;%2 = alloca i32, align 4</title>
<ellipse fill="none" stroke="black" cx="601.89" cy="-18" rx="126.98" ry="18"/>
<text text-anchor="middle" x="601.89" y="-14.3" font-family="Times,serif" font-size="14.00"> &#160;%2 = alloca i32, align 4</text>
</g>
<!--  &#160;%7 = load i32, i32* %2, align 4&#45;&gt; &#160;%2 = alloca i32, align 4 -->
<g id="edge2" class="edge">
<title> &#160;%7 = load i32, i32* %2, align 4&#45;&gt; &#160;%2 = alloca i32, align 4</title>
<path fill="none" stroke="black" d="M622.21,-71.7C619.17,-63.81 615.5,-54.3 612.13,-45.55"/>
<polygon fill="black" stroke="black" points="615.35,-44.17 608.48,-36.1 608.82,-46.69 615.35,-44.17"/>
</g>
<!--  &#160;store i32 %5, i32* %2, align 4 -->
<g id="node5" class="node">
<title> &#160;store i32 %5, i32* %2, align 4</title>
<ellipse fill="none" stroke="black" cx="293.89" cy="-90" rx="155.17" ry="18"/>
<text text-anchor="middle" x="293.89" y="-86.3" font-family="Times,serif" font-size="14.00"> &#160;store i32 %5, i32* %2, align 4</text>
</g>
<!--  &#160;store i32 %5, i32* %2, align 4&#45;&gt; &#160;%2 = alloca i32, align 4 -->
<g id="edge3" class="edge">
<title> &#160;store i32 %5, i32* %2, align 4&#45;&gt; &#160;%2 = alloca i32, align 4</title>
<path fill="none" stroke="black" d="M361.1,-73.72C410.3,-62.54 477.05,-47.37 527.79,-35.84"/>
<polygon fill="black" stroke="black" points="528.74,-39.21 537.72,-33.58 527.19,-32.39 528.74,-39.21"/>
</g>
<!--  &#160;%5 = call i32 @rand() #2 -->
<g id="node12" class="node">
<title> &#160;%5 = call i32 @rand() #2</title>
<ellipse fill="none" stroke="black" cx="293.89" cy="-18" rx="135.68" ry="18"/>
<text text-anchor="middle" x="293.89" y="-14.3" font-family="Times,serif" font-size="14.00"> &#160;%5 = call i32 @rand() #2</text>
</g>
<!--  &#160;store i32 %5, i32* %2, align 4&#45;&gt; &#160;%5 = call i32 @rand() #2 -->
<g id="edge8" class="edge">
<title> &#160;store i32 %5, i32* %2, align 4&#45;&gt; &#160;%5 = call i32 @rand() #2</title>
<path fill="none" stroke="black" d="M293.89,-71.7C293.89,-63.98 293.89,-54.71 293.89,-46.11"/>
<polygon fill="black" stroke="black" points="297.39,-46.1 293.89,-36.1 290.39,-46.1 297.39,-46.1"/>
</g>
<!--  &#160;%8 = load i32, i32* %3, align 4 -->
<g id="node6" class="node">
<title> &#160;%8 = load i32, i32* %3, align 4</title>
<ellipse fill="none" stroke="black" cx="970.89" cy="-90" rx="161.67" ry="18"/>
<text text-anchor="middle" x="970.89" y="-86.3" font-family="Times,serif" font-size="14.00"> &#160;%8 = load i32, i32* %3, align 4</text>
</g>
<!--  &#160;%3 = alloca i32, align 4 -->
<g id="node7" class="node">
<title> &#160;%3 = alloca i32, align 4</title>
<ellipse fill="none" stroke="black" cx="997.89" cy="-18" rx="126.98" ry="18"/>
<text text-anchor="middle" x="997.89" y="-14.3" font-family="Times,serif" font-size="14.00"> &#160;%3 = alloca i32, align 4</text>
</g>
<!--  &#160;%8 = load i32, i32* %3, align 4&#45;&gt; &#160;%3 = alloca i32, align 4 -->
<g id="edge4" class="edge">
<title> &#160;%8 = load i32, i32* %3, align 4&#45;&gt; &#160;%3 = alloca i32, align 4</title>
<path fill="none" stroke="black" d="M977.56,-71.7C980.6,-63.81 984.27,-54.3 987.65,-45.55"/>
<polygon fill="black" stroke="black" points="990.96,-46.69 991.29,-36.1 984.43,-44.17 990.96,-46.69"/>
</g>
<!--  &#160;store i32 %6, i32* %3, align 4 -->
<g id="node8" class="node">
<title> &#160;store i32 %6, i32* %3, align 4</title>
<ellipse fill="none" stroke="black" cx="1305.89" cy="-90" rx="155.17" ry="18"/>
<text text-anchor="middle" x="1305.89" y="-86.3" font-family="Times,serif" font-size="14.00"> &#160;store i32 %6, i32* %3, align 4</text>
</g>
<!--  &#160;store i32 %6, i32* %3, align 4&#45;&gt; &#160;%3 = alloca i32, align 4 -->
<g id="edge5" class="edge">
<title> &#160;store i32 %6, i32* %3, align 4&#45;&gt; &#160;%3 = alloca i32, align 4</title>
<path fill="none" stroke="black" d="M1238.68,-73.72C1189.47,-62.54 1122.72,-47.37 1071.98,-35.84"/>
<polygon fill="black" stroke="black" points="1072.58,-32.39 1062.06,-33.58 1071.03,-39.21 1072.58,-32.39"/>
</g>
<!--  &#160;%6 = call i32 @rand() #2 -->
<g id="node13" class="node">
<title> &#160;%6 = call i32 @rand() #2</title>
<ellipse fill="none" stroke="black" cx="1305.89" cy="-18" rx="135.68" ry="18"/>
<text text-anchor="middle" x="1305.89" y="-14.3" font-family="Times,serif" font-size="14.00"> &#160;%6 = call i32 @rand() #2</text>
</g>
<!--  &#160;store i32 %6, i32* %3, align 4&#45;&gt; &#160;%6 = call i32 @rand() #2 -->
<g id="edge9" class="edge">
<title> &#160;store i32 %6, i32* %3, align 4&#45;&gt; &#160;%6 = call i32 @rand() #2</title>
<path fill="none" stroke="black" d="M1305.89,-71.7C1305.89,-63.98 1305.89,-54.71 1305.89,-46.11"/>
<polygon fill="black" stroke="black" points="1309.39,-46.1 1305.89,-36.1 1302.39,-46.1 1309.39,-46.1"/>
</g>
<!--  &#160;%10 = load i32, i32* %4, align 4 -->
<g id="node9" class="node">
<title> &#160;%10 = load i32, i32* %4, align 4</title>
<ellipse fill="none" stroke="black" cx="458.89" cy="-234" rx="167.87" ry="18"/>
<text text-anchor="middle" x="458.89" y="-230.3" font-family="Times,serif" font-size="14.00"> &#160;%10 = load i32, i32* %4, align 4</text>
</g>
<!--  &#160;%4 = alloca i32, align 4 -->
<g id="node10" class="node">
<title> &#160;%4 = alloca i32, align 4</title>
<ellipse fill="none" stroke="black" cx="487.89" cy="-162" rx="126.98" ry="18"/>
<text text-anchor="middle" x="487.89" y="-158.3" font-family="Times,serif" font-size="14.00"> &#160;%4 = alloca i32, align 4</text>
</g>
<!--  &#160;%10 = load i32, i32* %4, align 4&#45;&gt; &#160;%4 = alloca i32, align 4 -->
<g id="edge6" class="edge">
<title> &#160;%10 = load i32, i32* %4, align 4&#45;&gt; &#160;%4 = alloca i32, align 4</title>
<path fill="none" stroke="black" d="M466.06,-215.7C469.32,-207.81 473.26,-198.3 476.89,-189.55"/>
<polygon fill="black" stroke="black" points="480.21,-190.68 480.8,-180.1 473.74,-188 480.21,-190.68"/>
</g>
<!--  &#160;store i32 %9, i32* %4, align 4 -->
<g id="node11" class="node">
<title> &#160;store i32 %9, i32* %4, align 4</title>
<ellipse fill="none" stroke="black" cx="799.89" cy="-234" rx="155.17" ry="18"/>
<text text-anchor="middle" x="799.89" y="-230.3" font-family="Times,serif" font-size="14.00"> &#160;store i32 %9, i32* %4, align 4</text>
</g>
<!--  &#160;store i32 %9, i32* %4, align 4&#45;&gt; &#160;%4 = alloca i32, align 4 -->
<g id="edge7" class="edge">
<title> &#160;store i32 %9, i32* %4, align 4&#45;&gt; &#160;%4 = alloca i32, align 4</title>
<path fill="none" stroke="black" d="M731.8,-217.72C681.88,-206.52 614.12,-191.32 562.68,-179.78"/>
<polygon fill="black" stroke="black" points="563.15,-176.3 552.63,-177.52 561.62,-183.13 563.15,-176.3"/>
</g>
<!--  &#160;%9 = add nsw i32 %7, %8 -->
<g id="node14" class="node">
<title> &#160;%9 = add nsw i32 %7, %8</title>
<ellipse fill="none" stroke="black" cx="799.89" cy="-162" rx="139.18" ry="18"/>
<text text-anchor="middle" x="799.89" y="-158.3" font-family="Times,serif" font-size="14.00"> &#160;%9 = add nsw i32 %7, %8</text>
</g>
<!--  &#160;store i32 %9, i32* %4, align 4&#45;&gt; &#160;%9 = add nsw i32 %7, %8 -->
<g id="edge12" class="edge">
<title> &#160;store i32 %9, i32* %4, align 4&#45;&gt; &#160;%9 = add nsw i32 %7, %8</title>
<path fill="none" stroke="black" d="M799.89,-215.7C799.89,-207.98 799.89,-198.71 799.89,-190.11"/>
<polygon fill="black" stroke="black" points="803.39,-190.1 799.89,-180.1 796.39,-190.1 803.39,-190.1"/>
</g>
<!--  &#160;%9 = add nsw i32 %7, %8&#45;&gt; &#160;%7 = load i32, i32* %2, align 4 -->
<g id="edge10" class="edge">
<title> &#160;%9 = add nsw i32 %7, %8&#45;&gt; &#160;%7 = load i32, i32* %2, align 4</title>
<path fill="none" stroke="black" d="M759.8,-144.59C735.64,-134.7 704.66,-122.02 678.91,-111.48"/>
<polygon fill="black" stroke="black" points="679.9,-108.1 669.32,-107.55 677.25,-114.58 679.9,-108.1"/>
</g>
<!--  &#160;%9 = add nsw i32 %7, %8&#45;&gt; &#160;%8 = load i32, i32* %3, align 4 -->
<g id="edge11" class="edge">
<title> &#160;%9 = add nsw i32 %7, %8&#45;&gt; &#160;%8 = load i32, i32* %3, align 4</title>
<path fill="none" stroke="black" d="M839.98,-144.59C864.14,-134.7 895.11,-122.02 920.86,-111.48"/>
<polygon fill="black" stroke="black" points="922.53,-114.58 930.45,-107.55 919.87,-108.1 922.53,-114.58"/>
</g>
<!--  &#160;ret i32 %10 -->
<g id="node15" class="node">
<title> &#160;ret i32 %10</title>
<ellipse fill="none" stroke="black" cx="458.89" cy="-306" rx="71.49" ry="18"/>
<text text-anchor="middle" x="458.89" y="-302.3" font-family="Times,serif" font-size="14.00"> &#160;ret i32 %10</text>
</g>
<!--  &#160;ret i32 %10&#45;&gt; &#160;%10 = load i32, i32* %4, align 4 -->
<g id="edge13" class="edge">
<title> &#160;ret i32 %10&#45;&gt; &#160;%10 = load i32, i32* %4, align 4</title>
<path fill="none" stroke="black" d="M458.89,-287.7C458.89,-279.98 458.89,-270.71 458.89,-262.11"/>
<polygon fill="black" stroke="black" points="462.39,-262.1 458.89,-252.1 455.39,-262.1 462.39,-262.1"/>
</g>
</g>
</svg>
