<?xml version="1.0" encoding="UTF-8" standalone="no"?>
<!DOCTYPE svg PUBLIC "-//W3C//DTD SVG 1.1//EN"
 "http://www.w3.org/Graphics/SVG/1.1/DTD/svg11.dtd">
<!-- Generated by graphviz version 2.43.0 (0)
 -->
<!-- Title: D Pages: 1 -->
<svg width="298pt" height="116pt"
 viewBox="0.00 0.00 298.39 116.00" xmlns="http://www.w3.org/2000/svg" xmlns:xlink="http://www.w3.org/1999/xlink">
<g id="graph0" class="graph" transform="scale(1 1) rotate(0) translate(4 112)">
<title>D</title>
<polygon fill="white" stroke="transparent" points="-4,4 -4,-112 294.39,-112 294.39,4 -4,4"/>
<!-- factorial -->
<g id="node1" class="node">
<title>factorial</title>
<ellipse fill="none" stroke="black" cx="49.4" cy="-18" rx="49.29" ry="18"/>
<text text-anchor="middle" x="49.4" y="-14.3" font-family="Times,serif" font-size="14.00">factorial</text>
</g>
<!-- factorial&#45;&gt;factorial -->
<g id="edge1" class="edge">
<title>factorial&#45;&gt;factorial</title>
<path fill="none" stroke="black" d="M83.73,-31.06C101.16,-32.97 116.79,-28.62 116.79,-18 116.79,-9.54 106.86,-5.06 94.01,-4.55"/>
<polygon fill="black" stroke="black" points="93.59,-1.06 83.73,-4.94 93.85,-8.06 93.59,-1.06"/>
</g>
<!-- main -->
<g id="node2" class="node">
<title>main</title>
<ellipse fill="none" stroke="black" cx="130.4" cy="-90" rx="33.6" ry="18"/>
<text text-anchor="middle" x="130.4" y="-86.3" font-family="Times,serif" font-size="14.00">main</text>
</g>
<!-- main&#45;&gt;factorial -->
<g id="edge3" class="edge">
<title>main&#45;&gt;factorial</title>
<path fill="none" stroke="black" d="M113.22,-74.15C102.25,-64.67 87.81,-52.2 75.45,-41.51"/>
<polygon fill="black" stroke="black" points="77.53,-38.69 67.67,-34.8 72.95,-43.98 77.53,-38.69"/>
</g>
<!-- __isoc99_scanf -->
<g id="node3" class="node">
<title>__isoc99_scanf</title>
<ellipse fill="none" stroke="black" cx="212.4" cy="-18" rx="77.99" ry="18"/>
<text text-anchor="middle" x="212.4" y="-14.3" font-family="Times,serif" font-size="14.00">__isoc99_scanf</text>
</g>
<!-- main&#45;&gt;__isoc99_scanf -->
<g id="edge2" class="edge">
<title>main&#45;&gt;__isoc99_scanf</title>
<path fill="none" stroke="black" d="M147.79,-74.15C158.66,-64.87 172.9,-52.72 185.24,-42.18"/>
<polygon fill="black" stroke="black" points="187.69,-44.69 193.02,-35.54 183.14,-39.37 187.69,-44.69"/>
</g>
</g>
</svg>
